<svg xmlns="http://www.w3.org/2000/svg" xmlns:xlink="http://www.w3.org/1999/xlink" version="1.1" id="Layer_1" x="0px" y="0px" viewBox="0 0 237.9 50" style="enable-background:new 0 0 237.9 50;" xml:space="preserve">
<style type="text/css">
	.st0{fill:#FFFFFF;}
</style>
<g>
	<path class="st0" d="M40.6,31.4c0,6.8-7.6,7.5-13,7.5h-4.9v-6.1h9.6v-4.7h-9.6v-6.4h10.6v-4.9H17.1v22.1h-6.2V11.1h16.7   c5,0,13,0.7,13,7.3c0,3.3-2.8,5.6-6.1,6.5C38.6,26.1,40.6,28.1,40.6,31.4z M25,0C11.2,0,0,11.2,0,25s11.2,25,25,25s25-11.2,25-25   S38.8,0,25,0z"/>
</g>
<g>
	<path class="st0" d="M78.8,39.6v-14l-4.4,7.5h-4.6l-4.5-7.5v14h-6.9V10.4h7L72,23.3l6.6-12.9h7v29.2H78.8z M101.8,20.6l-2.6,8.7   h5.1L101.8,20.6z M107.5,39.6l-1.4-4.5h-8.8l-1.6,4.5h-7.5l10.6-29.2h5.5L115,39.6H107.5z M139,39.6l-6.3-12.2   c1.3-0.7,2.5-1.6,3.4-2.9s1.4-2.9,1.4-4.7c0-1.2-0.2-2.4-0.7-3.5c-0.4-1.1-1.1-2.1-1.9-3c-0.8-0.9-1.9-1.6-3.2-2.1   s-2.7-0.8-4.2-0.8H110l2.3,6.4h10.8h0.8h3.2c1,0,1.7,0.3,2.3,0.9s0.8,1.3,0.8,2.1c0,0.8-0.3,1.6-0.8,2.2c-0.6,0.6-1.3,0.9-2.3,0.9   h-3.2h-0.8h-8.6l2.1,5.8h6.5h1h1.4l5.2,10.9H139z M167.1,39.6l-10.3-17.4l10-11.8H158l-8.4,10.3V10.4h-7.1v29.2h7.1v-9.1l2.5-2.8   l6.7,12L167.1,39.6L167.1,39.6z M189.9,39.6v-6.4h-12.7v-5.7H188v-5.8h-10.8v-4.9h12.7v-6.4h-19.8v29.2H189.9z M214.8,16.8v-6.4   h-21.5v6.4h7.2v22.8h7.2V16.8H214.8z M237.9,30.6c0-2.8-0.7-5-2.2-6.4c-1.3-1.3-3.2-2.1-5.7-2.4l-1.9-0.3l-1.6-0.2   c-0.9-0.1-1.5-0.4-2-0.9c-0.4-0.4-0.6-0.8-0.6-1.4c0-0.7,0.3-1.3,0.9-1.9c0.6-0.5,1.5-0.8,2.6-0.8c1.2,0,2.2,0.1,3.1,0.3   c0.9,0.2,1.7,0.7,2.4,1.4l4.5-4.5c-1.2-1.2-2.6-2.1-4.2-2.7c-1.6-0.5-3.5-0.8-5.6-0.8c-3.3,0-5.8,0.9-7.8,2.6   c-1.9,1.7-2.9,3.9-2.9,6.6c0,2.5,0.7,4.5,2,5.9c1.3,1.3,3.3,2.2,5.9,2.6l1.8,0.2l1.7,0.2c0.9,0.1,1.5,0.4,1.9,0.8s0.6,1,0.6,1.7   c0,1.7-1.4,2.6-4.2,2.6c-1.3,0-2.5-0.2-3.7-0.5s-2.1-0.8-2.8-1.6l-4.6,4.6c1.4,1.4,3,2.5,4.8,3c1.8,0.6,3.9,0.8,6.3,0.8   c1.6,0,3-0.2,4.4-0.6c1.4-0.4,2.6-1,3.6-1.8s1.8-1.7,2.4-2.9C237.6,33.4,237.9,32.1,237.9,30.6"/>
</g>
</svg>